# xmcd
#
# Track frame offsets:
#	150
#	10804
#	23269
#	36988
#	51571
#	64064
#	78758
#	93508
#	109651
#	126379
#	140823
#	155657
#	171382
#	187219
#	200910
#	215326
#	230633
#	243098
#	255981
#	269784
#	287822
#	304523
#
# Disc length: 4221 seconds
#
# Revision: 0
# Processed by: cddbd v1.5.2PL0 Copyright (c) Steve Scherf et al.
# Submitted via: dBpowerAMP V4.0
#
DISCID=49107b16
DTITLE=TAMMY WYNETTE - TEARS OF FIRE
DYEAR=1900
DGENRE=Country
TTITLE0=THEY CALL IT MAKING LOVE
TTITLE1=TWO STORY HOUSE ( GEORGE JONES )
TTITLE2=COWBOY'S DON'T SHOOT STRAIGHT ( LIKE THEY USED TO )
TTITLE3=CRYING IN THE RAIN
TTITLE4=ANOTHER CHANCE
TTITLE5=YOU STILL GET TO ME IN MY DREAMS
TTITLE6=UNWED FATHER
TTITLE7=( I'M NOT ) A CANDLE IN THE WIND
TTITLE8=SOMETIME WHEN WE TOUCH ( MARK GRAY )
TTITLE9=BETWEEN TWENTY -NINE AND DANGER
TTITLE10=ALIVE AND WELL
TTITLE11=TALKIN' TO MY SELF AGAIN ( WITH THE O'KANES )
TTITLE12=I WASN'T MENT TO LIVE MY LIFE ALONE ( VINCE GILL )
TTITLE13=BENEATH A PAINTED SKY ( EMMY LOU HARRIS )
TTITLE14=YOUR LOVE ( RICKY SKAGGS )
TTITLE15=HIGHER GROUND ( LARRY , STEVE and RUDY GATLIN )
TTITLE16=LIAR'S ROSES
TTITLE17=WE'RE STRANGERS AGAIN ( RANDY TRAVIS )
TTITLE18=SUDDENLY SINGLE
TTITLE19=IT COULD'NT HAVE BEEN SO GOOD
TTITLE20=JUSTIFIED AND ANCIENT ( KLF )
TTITLE21=PRECIOUS MEMORIES ( THE MASTERS FIVE )
EXTD=
EXTT0=
EXTT1=
EXTT2=
EXTT3=
EXTT4=
EXTT5=
EXTT6=
EXTT7=
EXTT8=
EXTT9=
EXTT10=
EXTT11=
EXTT12=
EXTT13=
EXTT14=
EXTT15=
EXTT16=
EXTT17=
EXTT18=
EXTT19=
EXTT20=
EXTT21=
PLAYORDER=
